<svg width="2162" height="600" fill="none" xmlns="http://www.w3.org/2000/svg"><path d="M1081.83 237.6h-67.2V198h183v39.6h-67.2V408h-48.6V237.6Zm179.83 30.3c5.6-7.8 13.1-13.7 22.5-17.7 9.6-4 20.6-6 33-6v43.2c-5.2-.4-8.7-.6-10.5-.6-13.4 0-23.9 3.8-31.5 11.4-7.6 7.4-11.4 18.6-11.4 33.6V408h-46.8V246.6h44.7v21.3Zm147.55-23.7c25 0 44.2 6 57.6 18 13.4 11.8 20.1 29.7 20.1 53.7V408h-43.8v-20.1c-8.8 15-25.2 22.5-49.2 22.5-12.4 0-23.2-2.1-32.4-6.3-9-4.2-15.9-10-20.7-17.4-4.8-7.4-7.2-15.8-7.2-25.2 0-15 5.6-26.8 16.8-35.4 11.4-8.6 28.9-12.9 52.5-12.9h37.2c0-10.2-3.1-18-9.3-23.4-6.2-5.6-15.5-8.4-27.9-8.4-8.6 0-17.1 1.4-25.5 4.2-8.2 2.6-15.2 6.2-21 10.8l-16.8-32.7c8.8-6.2 19.3-11 31.5-14.4 12.4-3.4 25.1-5.1 38.1-5.1Zm-3.6 134.7c8 0 15.1-1.8 21.3-5.4 6.2-3.8 10.6-9.3 13.2-16.5v-16.5h-32.1c-19.2 0-28.8 6.3-28.8 18.9 0 6 2.3 10.8 6.9 14.4 4.8 3.4 11.3 5.1 19.5 5.1Zm123.66-132.3h46.8V408h-46.8V246.6Zm23.4-22.5c-8.6 0-15.6-2.5-21-7.5s-8.1-11.2-8.1-18.6c0-7.4 2.7-13.6 8.1-18.6 5.4-5 12.4-7.5 21-7.5s15.6 2.4 21 7.2c5.4 4.8 8.1 10.8 8.1 18 0 7.8-2.7 14.3-8.1 19.5-5.4 5-12.4 7.5-21 7.5Z" fill="#000"/><path d="M1717.6 244.2c20 0 36.1 6 48.3 18 12.4 12 18.6 29.8 18.6 53.4V408h-46.8v-85.2c0-12.8-2.8-22.3-8.4-28.5-5.6-6.4-13.7-9.6-24.3-9.6-11.8 0-21.2 3.7-28.2 11.1-7 7.2-10.5 18-10.5 32.4V408h-46.8V246.6h44.7v18.9c6.2-6.8 13.9-12 23.1-15.6 9.2-3.8 19.3-5.7 30.3-5.7Zm266.59 2.4-72.9 171.3c-7.4 18.6-16.6 31.7-27.6 39.3-10.8 7.6-23.9 11.4-39.3 11.4-8.4 0-16.7-1.3-24.9-3.9-8.2-2.6-14.9-6.2-20.1-10.8l17.1-33.3c3.6 3.2 7.7 5.7 12.3 7.5 4.8 1.8 9.5 2.7 14.1 2.7 6.4 0 11.6-1.6 15.6-4.8 4-3 7.6-8.1 10.8-15.3l.6-1.5-69.9-162.6h48.3l45.3 109.5 45.6-109.5h45Zm78.93-2.4c25 0 44.2 6 57.6 18 13.4 11.8 20.1 29.7 20.1 53.7V408h-43.8v-20.1c-8.8 15-25.2 22.5-49.2 22.5-12.4 0-23.2-2.1-32.4-6.3-9-4.2-15.9-10-20.7-17.4-4.8-7.4-7.2-15.8-7.2-25.2 0-15 5.6-26.8 16.8-35.4 11.4-8.6 28.9-12.9 52.5-12.9h37.2c0-10.2-3.1-18-9.3-23.4-6.2-5.6-15.5-8.4-27.9-8.4-8.6 0-17.1 1.4-25.5 4.2-8.2 2.6-15.2 6.2-21 10.8l-16.8-32.7c8.8-6.2 19.3-11 31.5-14.4 12.4-3.4 25.1-5.1 38.1-5.1Zm-3.6 134.7c8 0 15.1-1.8 21.3-5.4 6.2-3.8 10.6-9.3 13.2-16.5v-16.5h-32.1c-19.2 0-28.8 6.3-28.8 18.9 0 6 2.3 10.8 6.9 14.4 4.8 3.4 11.3 5.1 19.5 5.1Z" fill="#2176FF"/><path fill-rule="evenodd" clip-rule="evenodd" d="M65.07 60.017a8.506 8.506 0 0 1 8-5.615h224.859a8.506 8.506 0 0 1 8.506 8.506v87.413l104.801 49.394 105.248-49.402V62.908a8.506 8.506 0 0 1 8.506-8.506h223.94a8.504 8.504 0 0 1 7.999 5.615l64.563 178.685a8.505 8.505 0 0 1-4.402 10.598L585.585 357.336 418.193 595.949c-3.387 4.828-10.54 4.828-13.927 0l-167.39-238.611L4.916 249.302a8.506 8.506 0 0 1-4.408-10.601L65.07 60.018Zm12.264 8.966L16.11 238.43l228.397 106.377a8.492 8.492 0 0 1 3.372 2.826L411.23 580.486l163.351-232.854a8.513 8.513 0 0 1 3.366-2.823l227.945-106.374-61.227-169.452h-213.6v85.189a8.505 8.505 0 0 1-4.892 7.7l-111.328 52.256a8.503 8.503 0 0 1-7.241-.006l-110.871-52.255a8.502 8.502 0 0 1-4.879-7.693v-85.19H77.334Z" fill="#2176FF"/><path fill-rule="evenodd" clip-rule="evenodd" d="M266.093 353.868a2.43 2.43 0 0 1 .59-3.386l7.951-5.591a2.43 2.43 0 0 1 3.386.59l130.975 186.256a2.43 2.43 0 0 0 3.978-.004l130.395-186.237a2.429 2.429 0 0 1 3.384-.597l7.963 5.575a2.43 2.43 0 0 1 .597 3.385L412.999 557.118a2.43 2.43 0 0 1-3.978.005L266.093 353.868ZM726.519 97.203a2.43 2.43 0 0 0-2.3-1.645h-86.303a2.43 2.43 0 0 1-2.431-2.43v-9.72a2.43 2.43 0 0 1 2.431-2.43h96.733a2.43 2.43 0 0 1 2.3 1.644l17.653 51.72a2.43 2.43 0 0 1-1.515 3.085l-9.199 3.14a2.43 2.43 0 0 1-3.085-1.515l-14.284-41.849ZM32.778 232.816a2.43 2.43 0 0 1-1.248-3.072l19.723-51.591a2.43 2.43 0 0 1 3.138-1.402l9.08 3.471a2.431 2.431 0 0 1 1.402 3.138L50.01 222.238a2.43 2.43 0 0 0 1.248 3.072l72.57 33.633a2.431 2.431 0 0 1 1.183 3.227l-4.088 8.82a2.431 2.431 0 0 1-3.227 1.183l-84.918-39.357ZM411.007 15.227l-75.95 36.035v84.021l75.95 35.757 75.024-35.159V50.663l-75.024-35.436ZM407.355.821a8.507 8.507 0 0 1 7.279-.006l81.105 38.308a8.506 8.506 0 0 1 4.873 7.69v92.93c0 3.3-1.909 6.302-4.896 7.702l-81.106 38.009a8.501 8.501 0 0 1-7.232-.007l-82.019-38.614a8.506 8.506 0 0 1-4.882-7.696V47.42a8.505 8.505 0 0 1 4.859-7.685L407.355.821Z" fill="#2176FF"/></svg>