<svg width="1978" height="458" fill="none" xmlns="http://www.w3.org/2000/svg"><path d="M897.828 177.6h-67.2V138h183.002v39.6h-67.202V348h-48.6V177.6Zm179.832 30.3c5.6-7.8 13.1-13.7 22.5-17.7 9.6-4 20.6-6 33-6v43.2c-5.2-.4-8.7-.6-10.5-.6-13.4 0-23.9 3.8-31.5 11.4-7.6 7.4-11.4 18.6-11.4 33.6V348h-46.8V186.6h44.7v21.3Zm147.55-23.7c25 0 44.2 6 57.6 18 13.4 11.8 20.1 29.7 20.1 53.7V348h-43.8v-20.1c-8.8 15-25.2 22.5-49.2 22.5-12.4 0-23.2-2.1-32.4-6.3-9-4.2-15.9-10-20.7-17.4-4.8-7.4-7.2-15.8-7.2-25.2 0-15 5.6-26.8 16.8-35.4 11.4-8.6 28.9-12.9 52.5-12.9h37.2c0-10.2-3.1-18-9.3-23.4-6.2-5.6-15.5-8.4-27.9-8.4-8.6 0-17.1 1.4-25.5 4.2-8.2 2.6-15.2 6.2-21 10.8l-16.8-32.7c8.8-6.2 19.3-11 31.5-14.4 12.4-3.4 25.1-5.1 38.1-5.1Zm-3.6 134.7c8 0 15.1-1.8 21.3-5.4 6.2-3.8 10.6-9.3 13.2-16.5v-16.5h-32.1c-19.2 0-28.8 6.3-28.8 18.9 0 6 2.3 10.8 6.9 14.4 4.8 3.4 11.3 5.1 19.5 5.1Zm123.66-132.3h46.8V348h-46.8V186.6Zm23.4-22.5c-8.6 0-15.6-2.5-21-7.5s-8.1-11.2-8.1-18.6c0-7.4 2.7-13.6 8.1-18.6 5.4-5 12.4-7.5 21-7.5s15.6 2.4 21 7.2c5.4 4.8 8.1 10.8 8.1 18 0 7.8-2.7 14.3-8.1 19.5-5.4 5-12.4 7.5-21 7.5Z" fill="#fff"/><path d="M1533.6 184.2c20 0 36.1 6 48.3 18 12.4 12 18.6 29.8 18.6 53.4V348h-46.8v-85.2c0-12.8-2.8-22.3-8.4-28.5-5.6-6.4-13.7-9.6-24.3-9.6-11.8 0-21.2 3.7-28.2 11.1-7 7.2-10.5 18-10.5 32.4V348h-46.8V186.6h44.7v18.9c6.2-6.8 13.9-12 23.1-15.6 9.2-3.8 19.3-5.7 30.3-5.7Zm266.59 2.4-72.9 171.3c-7.4 18.6-16.6 31.7-27.6 39.3-10.8 7.6-23.9 11.4-39.3 11.4-8.4 0-16.7-1.3-24.9-3.9-8.2-2.6-14.9-6.2-20.1-10.8l17.1-33.3c3.6 3.2 7.7 5.7 12.3 7.5 4.8 1.8 9.5 2.7 14.1 2.7 6.4 0 11.6-1.6 15.6-4.8 4-3 7.6-8.1 10.8-15.3l.6-1.5-69.9-162.6h48.3l45.3 109.5 45.6-109.5h45Zm78.93-2.4c25 0 44.2 6 57.6 18 13.4 11.8 20.1 29.7 20.1 53.7V348h-43.8v-20.1c-8.8 15-25.2 22.5-49.2 22.5-12.4 0-23.2-2.1-32.4-6.3-9-4.2-15.9-10-20.7-17.4-4.8-7.4-7.2-15.8-7.2-25.2 0-15 5.6-26.8 16.8-35.4 11.4-8.6 28.9-12.9 52.5-12.9h37.2c0-10.2-3.1-18-9.3-23.4-6.2-5.6-15.5-8.4-27.9-8.4-8.6 0-17.1 1.4-25.5 4.2-8.2 2.6-15.2 6.2-21 10.8l-16.8-32.7c8.8-6.2 19.3-11 31.5-14.4 12.4-3.4 25.1-5.1 38.1-5.1Zm-3.6 134.7c8 0 15.1-1.8 21.3-5.4 6.2-3.8 10.6-9.3 13.2-16.5v-16.5h-32.1c-19.2 0-28.8 6.3-28.8 18.9 0 6 2.3 10.8 6.9 14.4 4.8 3.4 11.3 5.1 19.5 5.1Z" fill="#2176FF"/><path fill-rule="evenodd" clip-rule="evenodd" d="M49.634 45.78a6.488 6.488 0 0 1 6.102-4.284h171.516a6.487 6.487 0 0 1 6.488 6.488v66.676l79.94 37.677 80.28-37.683v-66.67a6.488 6.488 0 0 1 6.488-6.488h170.816a6.488 6.488 0 0 1 6.102 4.283l49.247 136.296a6.488 6.488 0 0 1-3.358 8.084l-176.586 82.407-127.683 182.008c-2.583 3.682-8.039 3.682-10.622 0L180.683 272.567 3.75 190.16a6.487 6.487 0 0 1-3.363-8.085L49.634 45.779Zm9.355 6.838-46.701 129.25 174.215 81.141a6.49 6.49 0 0 1 2.572 2.155l124.6 177.615 124.6-177.615a6.487 6.487 0 0 1 2.568-2.153l173.87-81.14-46.702-129.253H405.082v64.98a6.488 6.488 0 0 1-3.731 5.873l-84.918 39.86a6.49 6.49 0 0 1-5.523-.005l-84.57-39.858a6.488 6.488 0 0 1-3.722-5.869V52.618H58.988Z" fill="#2176FF"/><path fill-rule="evenodd" clip-rule="evenodd" d="M202.968 269.921a1.855 1.855 0 0 1 .45-2.583l6.066-4.265a1.853 1.853 0 0 1 2.582.45l99.904 142.072a1.854 1.854 0 0 0 3.035-.003l99.461-142.057a1.853 1.853 0 0 1 2.582-.455l6.074 4.252a1.854 1.854 0 0 1 .455 2.582L315.025 424.955a1.854 1.854 0 0 1-3.035.003L202.968 269.921ZM554.17 74.143a1.855 1.855 0 0 0-1.755-1.255h-65.83a1.854 1.854 0 0 1-1.854-1.853V63.62c0-1.023.83-1.853 1.854-1.853h73.786c.793 0 1.498.504 1.754 1.255l13.466 39.45a1.854 1.854 0 0 1-1.156 2.353l-7.017 2.395a1.853 1.853 0 0 1-2.353-1.155L554.17 74.143ZM25.002 177.586a1.854 1.854 0 0 1-.952-2.344l15.045-39.352a1.853 1.853 0 0 1 2.393-1.069l6.926 2.647a1.855 1.855 0 0 1 1.07 2.394l-11.338 29.654c-.348.91.068 1.935.952 2.344l55.355 25.655a1.853 1.853 0 0 1 .902 2.461l-3.118 6.727a1.854 1.854 0 0 1-2.461.903l-64.774-30.02ZM313.505 11.615l-57.932 27.486v64.089l57.932 27.275 57.227-26.818V38.644l-57.227-27.029ZM310.72.626a6.488 6.488 0 0 1 5.552-.005l61.865 29.22a6.489 6.489 0 0 1 3.717 5.867v70.885a6.487 6.487 0 0 1-3.735 5.874l-61.865 28.992a6.483 6.483 0 0 1-5.517-.005L248.175 112a6.488 6.488 0 0 1-3.724-5.87V36.17a6.488 6.488 0 0 1 3.707-5.861L310.72.626Z" fill="#2176FF"/></svg>